<svg xmlns="http://www.w3.org/2000/svg" width="20.91" height="38.638" viewBox="0 0 20.91 38.638">
  <g id="그룹_7314" data-name="그룹 7314" transform="translate(-315 -1242.425)">
    <g id="좋아요" transform="translate(603 1200.425)">
      <g id="패스_213" data-name="패스 213" transform="translate(-867.24 -1290.907)" fill="#f7f7f7" stroke-miterlimit="10">
        <path d="M 589.874267578125 1349.956787109375 C 588.1773071289062 1348.970703125 585.1430053710938 1346.867065429688 583.0179443359375 1344.645385742188 C 581.5574340820312 1343.1181640625 579.6290283203125 1340.789794921875 579.744873046875 1338.212280273438 C 579.8223266601562 1336.510864257812 580.8081665039062 1334.957641601562 582.3176879882812 1334.158813476562 C 583.03076171875 1333.782104492188 583.833984375 1333.58056640625 584.7047119140625 1333.56005859375 C 584.7535400390625 1333.5595703125 584.8016967773438 1333.559326171875 584.8497924804688 1333.559326171875 C 584.9173583984375 1333.559326171875 584.9846801757812 1333.559936523438 585.0532836914062 1333.561279296875 C 587.51806640625 1333.642700195312 589.2297973632812 1336.02099609375 589.2467651367188 1336.045043945312 L 589.6689453125 1336.641235351562 L 590.0718994140625 1336.031982421875 C 590.0802612304688 1336.019409179688 590.9688720703125 1334.701171875 592.4055786132812 1333.943237304688 C 592.9895629882812 1333.632568359375 593.5859985351562 1333.456665039062 594.1798706054688 1333.419799804688 L 594.2564697265625 1333.415771484375 C 594.3200073242188 1333.412353515625 594.3800659179688 1333.4091796875 594.4366455078125 1333.408325195312 C 594.4869995117188 1333.407104492188 594.533203125 1333.406616210938 594.5796508789062 1333.406616210938 C 595.9666137695312 1333.406616210938 597.1959228515625 1333.874145507812 598.1347045898438 1334.7587890625 C 599.010986328125 1335.584594726562 599.5438842773438 1336.700073242188 599.63525390625 1337.900024414062 C 599.8319091796875 1340.48095703125 597.9780883789062 1342.864379882812 596.5665893554688 1344.4326171875 C 594.7081909179688 1346.502685546875 591.8536987304688 1348.73095703125 589.874267578125 1349.956787109375 Z" stroke="none"/>
        <path d="M 594.5796508789062 1333.906616210938 C 594.5369262695312 1333.906616210938 594.4945068359375 1333.907104492188 594.4513549804688 1333.908081054688 L 594.444580078125 1333.908203125 C 594.3973999023438 1333.908935546875 594.3419189453125 1333.911987304688 594.283203125 1333.9150390625 L 594.2091064453125 1333.9189453125 C 593.6875610351562 1333.95166015625 593.1602783203125 1334.108032226562 592.638916015625 1334.385375976562 C 591.322265625 1335.080078125 590.495361328125 1336.298217773438 590.4889526367188 1336.307739257812 L 589.6829833984375 1337.5263671875 L 588.8387451171875 1336.333984375 C 588.8231811523438 1336.31201171875 587.2224731445312 1334.135864257812 585.0404663085938 1334.061157226562 C 584.9301147460938 1334.058837890625 584.8232421875 1334.058959960938 584.7129516601562 1334.06005859375 C 583.9216918945312 1334.079223632812 583.1942749023438 1334.26123046875 582.551513671875 1334.600830078125 C 581.1978759765625 1335.317138671875 580.3137817382812 1336.709716796875 580.244384765625 1338.234741210938 C 580.1371459960938 1340.620849609375 581.982177734375 1342.8388671875 583.3792724609375 1344.2998046875 C 585.3649291992188 1346.375732421875 588.1597290039062 1348.34765625 589.8651733398438 1349.370727539062 C 591.5379638671875 1348.297729492188 594.2709350585938 1346.2412109375 596.1949462890625 1344.09814453125 C 597.5449829101562 1342.59814453125 599.3187255859375 1340.32763671875 599.1366577148438 1337.93798828125 C 598.9841918945312 1335.9345703125 597.3699340820312 1333.906616210938 594.5796508789062 1333.906616210938 M 594.5796508789062 1332.906616210938 C 597.7694702148438 1332.906616210938 599.9329833984375 1335.223510742188 600.1337890625 1337.862060546875 C 600.3414306640625 1340.587158203125 598.460693359375 1343.075561523438 596.938232421875 1344.76708984375 C 594.8682861328125 1347.07275390625 591.7247314453125 1349.434448242188 589.8826293945312 1350.537109375 C 588.009765625 1349.490356445312 584.7943725585938 1347.225952148438 582.6566162109375 1344.990966796875 C 581.0820922851562 1343.344604492188 579.1227416992188 1340.9189453125 579.245361328125 1338.189819335938 C 579.329345703125 1336.345092773438 580.3748779296875 1334.621215820312 582.0838012695312 1333.716918945312 C 582.8323974609375 1333.321411132812 583.712890625 1333.082885742188 584.6958618164062 1333.060180664062 C 584.8211059570312 1333.058715820312 584.9423217773438 1333.058837890625 585.0675659179688 1333.0615234375 C 587.81005859375 1333.150756835938 589.6548461914062 1335.756103515625 589.6548461914062 1335.756103515625 C 589.6548461914062 1335.756103515625 590.5965576171875 1334.332275390625 592.1723022460938 1333.5009765625 C 592.7530517578125 1333.192016601562 593.4163818359375 1332.9658203125 594.1516723632812 1332.920532226562 C 594.2437133789062 1332.916137695312 594.3367919921875 1332.909790039062 594.4287109375 1332.908325195312 C 594.4794311523438 1332.9072265625 594.5294189453125 1332.906616210938 594.5796508789062 1332.906616210938 Z" stroke="none" fill="#e4e4e4"/>
      </g>
    </g>
    <g id="좋아요-2" data-name="좋아요" transform="translate(315 1263.432)">
      <path id="패스_213-2" data-name="패스 213" d="M582.084,1333.717a5.338,5.338,0,0,0-2.839,4.473c-.123,2.729,1.837,5.155,3.411,6.8a35.346,35.346,0,0,0,7.226,5.546,35.122,35.122,0,0,0,7.056-5.77c1.523-1.692,3.4-4.18,3.2-6.905a5.409,5.409,0,0,0-5.705-4.954c-.092,0-.185.008-.277.012a4.838,4.838,0,0,0-1.979.581,7.621,7.621,0,0,0-2.518,2.255s-1.845-2.605-4.587-2.695c-.125,0-.246,0-.372,0a5.846,5.846,0,0,0-2.612.657Z" transform="translate(-579.24 -1332.907)" fill="#fc5555"/>
    </g>
  </g>
</svg>
