<svg xmlns="http://www.w3.org/2000/svg" width="34.022" height="35.27" viewBox="0 0 34.022 35.27"><g transform="translate(13645.499 14805)"><g transform="translate(30.512 5.209)"><path d="M8.614,1.748A9.792,9.792,0,0,1,15.6,4.753l.911.939.912-.94a9.807,9.807,0,0,1,6.987-3,8.718,8.718,0,0,1,5.731,2.1,9.532,9.532,0,0,1,2.437,3.174,9.8,9.8,0,0,1-1.77,10.963L18.327,30.866a2.522,2.522,0,0,1-3.64,0L2.208,17.98A9.8,9.8,0,0,1,.445,7.016,9.533,9.533,0,0,1,2.881,3.843,8.721,8.721,0,0,1,8.614,1.748Zm7.9,5.38L14.881,5.449a8.788,8.788,0,0,0-6.267-2.7A7.733,7.733,0,0,0,3.53,4.6a8.6,8.6,0,0,0-3.02,6.2,8.746,8.746,0,0,0,2.417,6.483L15.406,30.17a1.522,1.522,0,0,0,2.2,0l12.48-12.886A8.742,8.742,0,0,0,32.511,10.8a8.6,8.6,0,0,0-3.02-6.2,7.73,7.73,0,0,0-5.082-1.856,8.8,8.8,0,0,0-6.269,2.7Z" transform="translate(-13675.511 -14809.457)" fill="#fff"/><g transform="translate(-492.965 -1470.318)"><circle cx="5.921" cy="5.921" r="5.921" transform="translate(-13171.955 -13328.965)" fill="#333"/><path d="M5.921-.5A6.421,6.421,0,1,1-.5,5.921,6.428,6.428,0,0,1,5.921-.5Zm0,11.842A5.421,5.421,0,1,0,.5,5.921,5.427,5.427,0,0,0,5.921,11.342Z" transform="translate(-13171.955 -13328.965)" fill="#fff"/><path d="M204.333,186.93a10.43,10.43,0,1,1,20.86,0Z" transform="translate(-13380.798 -13493.623)" fill="#333"/><path d="M225.693,187.43h-21.86v-.5a10.93,10.93,0,1,1,21.86,0Zm-20.848-1h19.837a9.931,9.931,0,0,0-19.837,0Z" transform="translate(-13380.798 -13493.623)" fill="#fff"/></g></g><rect width="33.02" height="35.27" transform="translate(-13645 -14805)" fill="none"/></g></svg>