<svg xmlns="http://www.w3.org/2000/svg" width="39.607" height="35.27" viewBox="0 0 39.607 35.27"><g transform="translate(13647.5 14710)"><rect width="38.61" height="35.27" transform="translate(-13647 -14710)" fill="none"/><g transform="translate(31.305 6.888)"><g transform="translate(-13678.305 -14712.889)"><path d="M-61.04,698.156a.773.773,0,0,1-.3-.06l-10.129-3.4.318-.948,9.952,3.337V671.721l-10.01,2.069-.2-.979,10.106-2.089a.776.776,0,0,1,.681.076.969.969,0,0,1,.425.821v25.593a.97.97,0,0,1-.425.822A.78.78,0,0,1-61.04,698.156Z" transform="translate(99.305 -671.175)" fill="#fff"/><path d="M-96.51,698.154a.784.784,0,0,1-.42-.123.976.976,0,0,1-.428-.827V671.626a.974.974,0,0,1,.427-.826.779.779,0,0,1,.685-.077l10.1,2.086-.2.979-10.011-2.068v25.367l9.953-3.337.318.948-10.124,3.394A.776.776,0,0,1-96.51,698.154Z" transform="translate(96.858 -671.175)" fill="#fff"/><path d="M-.5-.152H17.885V21.781H-.5Zm17.385,1H.5V20.781H16.885Z" transform="translate(10.612 1.786)" fill="#fff"/></g><path d="M.773,0A.912.912,0,0,0,0,1V12.06H5.408V1a.912.912,0,0,0-.773-1H.773m0-1H4.636A1.879,1.879,0,0,1,6.408,1V13.06H-1V1A1.879,1.879,0,0,1,.773-1Z" transform="translate(-13661.704 -14702.399)" fill="#fff"/></g></g></svg>