<?xml version="1.0" encoding="utf-8"?>
<!-- Generator: Adobe Illustrator 26.0.2, SVG Export Plug-In . SVG Version: 6.00 Build 0)  -->
<svg version="1.1" id="레이어_1" xmlns="http://www.w3.org/2000/svg" xmlns:xlink="http://www.w3.org/1999/xlink" x="0px"
	 y="0px" viewBox="0 0 48.4 33.6" width="33.602" height="35.27" style="enable-background:new 0 0 48.4 33.6;" xml:space="preserve">
<style type="text/css">
	.st0{fill:#FFFFFF;}
	.st1{fill:none;stroke:#FFFFFF;stroke-linecap:round;stroke-linejoin:round;}
</style>
<g id="그룹_13259" transform="translate(-1594.999 -150.78)">
	<g id="그룹_13259-2" transform="translate(1595.499 151.28)">
		<g id="사각형_2263">
			<path class="st0" d="M40.2,21.9H6.7c-0.3,0-0.5-0.2-0.5-0.5v-7.9c0-0.3,0.2-0.5,0.5-0.5h33.5c0.3,0,0.5,0.2,0.5,0.5v7.9
				C40.7,21.7,40.5,21.9,40.2,21.9z M7.1,20.9h32.6v-7H7.1V20.9z"/>
		</g>
		<g id="패스_3013">
			<path class="st1" d="M3.2,13.4"/>
		</g>
		<g id="사각형_2264">
			<path class="st0" d="M44.4,25.1H2.7c-0.3,0-0.5-0.2-0.5-0.5V10c0-0.3,0.2-0.5,0.5-0.5h41.7c0.3,0,0.5,0.2,0.5,0.5v14.6
				C44.9,24.9,44.7,25.1,44.4,25.1z M3.2,24.1h40.7V10.5H3.2V24.1z"/>
		</g>
		<g id="패스_3014">
			<path class="st1" d="M8.7,13.4"/>
		</g>
		<g id="패스_3015">
			<path class="st1" d="M43.9,13.4"/>
		</g>
		<g id="그룹_7302" transform="translate(14.391 0)">
			<g id="패스_3016">
				<path class="st0" d="M19.4,10.4H-0.5c-0.1,0-0.3-0.1-0.4-0.2c-0.1-0.1-0.1-0.2-0.1-0.4c0-0.1,0.7-10.3,10.4-10.3
					c9.7,0,10.4,10.2,10.4,10.3c0,0.1,0,0.3-0.1,0.4C19.6,10.3,19.5,10.4,19.4,10.4z M0.1,9.4h18.7c-0.3-2-1.7-8.9-9.4-8.9
					C1.8,0.5,0.3,7.4,0.1,9.4z"/>
			</g>
			<g id="패스_3017">
				<path class="st0" d="M2.3,10.4C2.3,10.4,2.3,10.4,2.3,10.4c-0.3,0-0.5-0.2-0.5-0.5c0-0.1,0.3-7.5,7.5-7.5c7.2,0,7.9,7.4,7.9,7.5
					c0,0.3-0.2,0.5-0.4,0.5c-0.3,0-0.5-0.2-0.5-0.4c0-0.3-0.6-6.6-6.9-6.6c-6.3,0-6.6,6.3-6.6,6.6C2.8,10.1,2.6,10.4,2.3,10.4z"/>
			</g>
		</g>
		<g id="패스_3018">
			<path class="st0" d="M47.4,33.1H0c-0.2,0-0.3-0.1-0.4-0.2c-0.1-0.1-0.1-0.3,0-0.5l1.9-3.9l-1.9-3.6c-0.1-0.2-0.1-0.3,0-0.5
				c0.1-0.1,0.2-0.2,0.4-0.2h47.4c0.2,0,0.3,0.1,0.4,0.2c0.1,0.1,0.1,0.3,0,0.5l-1.9,3.6l1.9,3.9c0.1,0.2,0.1,0.3,0,0.5
				C47.7,33,47.6,33.1,47.4,33.1z M0.8,32.1h45.9L45,28.7c-0.1-0.1-0.1-0.3,0-0.4l1.6-3.2H0.8l1.6,3.2c0.1,0.1,0.1,0.3,0,0.4
				L0.8,32.1z"/>
		</g>
	</g>
</g>
</svg>
