<svg xmlns="http://www.w3.org/2000/svg" width="52.39" height="36.266" viewBox="0 0 52.39 36.266"><g transform="translate(13650.5 14900.5)"><rect width="51.39" height="35.27" transform="translate(-13650 -14900)" fill="none"/><g transform="translate(34.889 0.254)"><g transform="translate(-13661.112 -14900.474)"><path d="M16.056,1h0A12.056,12.056,0,0,1,28.112,13.056,13.9,13.9,0,0,1,26.246,19.7,26.392,26.392,0,0,1,22.2,25.117a38.083,38.083,0,0,1-5.864,5.048.5.5,0,0,1-.555,0,38.083,38.083,0,0,1-5.864-5.048A26.392,26.392,0,0,1,5.867,19.7,13.9,13.9,0,0,1,4,13.056,12.057,12.057,0,0,1,16.056,1Zm0,28.14a38.642,38.642,0,0,0,5.429-4.725c2.567-2.713,5.627-6.886,5.627-11.358A11.069,11.069,0,0,0,16.056,2h0A11.069,11.069,0,0,0,5,13.056c0,4.472,3.06,8.645,5.627,11.358A38.642,38.642,0,0,0,16.056,29.14Z" transform="translate(0 0)" fill="#fff"/><path d="M18.077,10A5.077,5.077,0,1,1,13,15.077,5.082,5.082,0,0,1,18.077,10Zm0,9.153A4.077,4.077,0,1,0,14,15.077,4.081,4.081,0,0,0,18.077,19.153Z" transform="translate(-2.021 -2.021)" fill="#fff"/></g><path d="M1418.119,1481.77a1.7,1.7,0,0,1-.459-.063,1.752,1.752,0,0,1-1.32-1.374l0-.016-1.422-8.9a.679.679,0,0,0-.236-.4l-3.757-3.174a.86.86,0,0,0-.658-.193l-1.264.161a.662.662,0,0,0-.516.348l-.391.787a1.661,1.661,0,0,1-1.29.882l-4.564.587a1.848,1.848,0,0,1-1.779-.819l-.005-.008-4.342-6.949a.835.835,0,0,0-1.041-.3l-.093.043a1.829,1.829,0,0,1-2.387-.838l-.007-.014-.18-.382a1.558,1.558,0,0,1,.722-2.078l10.938-5.606a.593.593,0,0,0,.3-.362l.621-2.219.02-.057a1.714,1.714,0,0,1,2.2-.991l5.324,1.774a.764.764,0,0,0,.842-.229l3.931-5.154a2.032,2.032,0,0,1,3.077-.025c.819.847,1,1.026,1.011,1.033l-.692.722c-.007-.007-.194-.187-1.038-1.06a1.12,1.12,0,0,0-.809-.387h-.033a1.059,1.059,0,0,0-.744.353l-3.924,5.146a1.765,1.765,0,0,1-1.953.544l-5.339-1.78a.711.711,0,0,0-.917.408l-.006.016-.61,2.182a1.6,1.6,0,0,1-.816.979l-10.947,5.61a.558.558,0,0,0-.262.743l0,.009.177.376a.83.83,0,0,0,1.078.375l.1-.044a1.831,1.831,0,0,1,2.292.672l.005.009,4.342,6.949a.841.841,0,0,0,.809.37l4.58-.589a.663.663,0,0,0,.515-.348l.391-.787a1.66,1.66,0,0,1,1.292-.881l1.25-.16a1.868,1.868,0,0,1,1.426.419l3.755,3.173a1.676,1.676,0,0,1,.58,1.006v.006l1.421,8.89a.752.752,0,0,0,.572.584l.029.007a.712.712,0,0,0,.85-.4l3.128-7.237.918.4-3.128,7.238A1.715,1.715,0,0,1,1418.119,1481.77Z" transform="translate(-15077.641 -16346.259)" fill="#fff"/></g></g></svg>