<svg data-name="그룹 6239" xmlns="http://www.w3.org/2000/svg" width="10.874" height="20.824">
    <path data-name="패스 233" d="M37.056 166.907c.644-.022 1.289-.006 1.936-.007h.267v-3.355c-.346-.034-.706-.085-1.066-.1-.661-.029-1.324-.062-1.987-.047a4.875 4.875 0 0 0-2.8.867 4.2 4.2 0 0 0-1.685 2.8 9.849 9.849 0 0 0-.121 1.435c-.019.753 0 1.507 0 2.26v.283h-3.215v3.748h3.193v9.421h3.9v-9.407h3.182c.164-1.246.323-2.479.491-3.765H35.453s.009-1.858.032-2.665c.031-1.099.686-1.436 1.571-1.468z" transform="translate(-28.385 -163.393)" style="fill:#232323;fill-rule:evenodd"/>
</svg>
