<svg data-name="그룹 6240" xmlns="http://www.w3.org/2000/svg" width="21.986" height="21.976">
    <path data-name="패스 235" d="M103.809 169.424a5.825 5.825 0 0 0-1.778-3.751A6.09 6.09 0 0 0 98 164.036a79.413 79.413 0 0 0-10.875.121 5.545 5.545 0 0 0-4.755 4.27c-.524 1.871-.42 10.493-.114 12.341a5.566 5.566 0 0 0 4.416 4.8c1.735.447 10.258.39 12.17.081a5.574 5.574 0 0 0 4.816-4.4c.503-1.921.327-10.092.151-11.825zm-2.023 10.986a3.722 3.722 0 0 1-3.5 3.321c-1.773.195-9.693.3-11.339-.16a3.6 3.6 0 0 1-2.734-3.1 73.391 73.391 0 0 1 0-11.1 3.714 3.714 0 0 1 3.484-3.306 77.544 77.544 0 0 1 10.822.044 3.722 3.722 0 0 1 3.315 3.5 78.886 78.886 0 0 1-.049 10.802zM93 169.265a5.637 5.637 0 1 0 5.633 5.64 5.637 5.637 0 0 0-5.633-5.64zm-.039 9.279a3.645 3.645 0 1 1 3.677-3.613 3.647 3.647 0 0 1-3.68 3.613zm7.215-9.492a1.32 1.32 0 1 1-1.316-1.323 1.32 1.32 0 0 1 1.313 1.323z" transform="translate(-82.002 -163.912)" style="fill:#232323"/>
</svg>
